<?xml version="1.0" encoding="utf-8"?>
<svg xmlns="http://www.w3.org/2000/svg" version="1.1" viewBox="5.196 12.07 90.641 74.856">
  <path d="m91.25 81.875h-82.5c-1.0352 0-1.875 0.83984-1.875 1.875s0.83984 1.875 1.875 1.875h82.5c1.0352 0 1.875-0.83984 1.875-1.875s-0.83984-1.875-1.875-1.875z" style="fill: rgb(255, 255, 255);"/>
  <path d="m12.742 30.801c1.1055 6.5078 5.9258 11.832 12.281 13.535l16.074 4.3047-11.934 11.824c-0.71484 0.70703-0.99609 1.75-0.73828 2.7188 0.25781 0.96875 1.0195 1.7344 1.9883 1.9961l4.7656 1.2773c0.48047 0.12891 0.97266 0.19141 1.457 0.19141 1.1484 0 2.2773-0.35156 3.2383-1.0273l17.789-12.547 24.43 6.5234c0.48828 0.14844 0.99219 0.20703 1.4805 0.20703 1.2383 0 2.4375-0.41016 3.4297-1.1797 1.4062-1.1055 2.1953-2.7578 2.1562-4.5195-0.039062-2.9453-1.0117-5.7188-2.8125-8.043-1.8008-2.2852-4.3125-3.9375-7.0898-4.6875l-18.746-5.0195-8.1055-17.535c-0.71484-1.5391-2.043-2.6445-3.6367-3.0742l-4.7812-1.2734c-0.97656-0.26172-2.0078 0.019532-2.7188 0.73047-0.71484 0.71094-0.97656 1.7422-0.71484 2.7188l3.8516 14.121-16.133-4.3203c-1.4258-0.375-2.6602-1.3125-3.4141-2.5898l-3.4102-5.8516c-0.50781-0.89844-1.3516-1.5391-2.2695-1.7617l-4.8008-1.2734c-0.9375-0.26172-1.9297-0.039063-2.6445 0.60156-0.71484 0.65625-1.0508 1.6133-0.89844 2.5508l1.8945 11.398zm31.859-12.277 3.2266 0.86328c0.50781 0.13281 0.95703 0.50781 1.1797 1.0117l6.8008 14.695-7.2188-1.9336-3.9883-14.641zm-26.383 2.6211 3.4297 5.8672c1.2383 2.1367 3.3008 3.7109 5.6641 4.3516l50.98 13.648c2.0078 0.52344 3.8047 1.7266 5.1016 3.3555 1.293 1.668 1.9883 3.6758 2.0234 5.793 0.019531 0.60156-0.24219 1.1445-0.71484 1.5-0.46875 0.35547-1.0508 0.48828-1.6328 0.32031l-21.402-5.7266 0.70703-0.5c0.84766-0.59766 1.0508-1.7656 0.45312-2.6133s-1.7695-1.0508-2.6133-0.45312l-22.5 15.867c-0.45703 0.32031-1.0312 0.42578-1.5664 0.28125l-3.1875-0.85547 16.184-16.039c0.73438-0.73047 0.74219-1.9141 0.011719-2.6523-0.73047-0.73437-1.9141-0.73828-2.6523-0.011718l-2.3164 2.2969-18.191-4.875c-4.9492-1.3125-8.6992-5.457-9.543-10.52l-1.668-9.9375 3.4297 0.89844z" style="fill: rgb(255, 255, 255);"/>
</svg>