<svg width="32" height="32" viewBox="0 0 32 32" fill="none" xmlns="http://www.w3.org/2000/svg">
<g id="icons8-cook 1">
<path id="Vector" d="M14 2C11.3746 2 8.98898 2.53898 7.17578 3.47917C5.36258 4.41935 4 5.85688 4 7.66667C4 9.47646 5.36258 10.914 7.17578 11.8542C8.81907 12.7062 10.9348 13.2247 13.2708 13.3151L12.9596 13.6263C12.8637 13.7184 12.787 13.8288 12.7343 13.9509C12.6815 14.0731 12.6536 14.2045 12.6522 14.3375C12.6509 14.4706 12.6761 14.6026 12.7264 14.7257C12.7767 14.8489 12.851 14.9608 12.9451 15.0549C13.0392 15.149 13.1511 15.2233 13.2743 15.2736C13.3974 15.3239 13.5294 15.3491 13.6625 15.3478C13.7955 15.3464 13.9269 15.3185 14.0491 15.2657C14.1712 15.213 14.2816 15.1363 14.3737 15.0404L16.3737 13.0404C16.5612 12.8528 16.6665 12.5985 16.6665 12.3333C16.6665 12.0682 16.5612 11.8138 16.3737 11.6263L14.3737 9.6263C14.2805 9.53031 14.169 9.454 14.0457 9.40189C13.9225 9.34978 13.7901 9.32292 13.6562 9.32292C13.4572 9.32297 13.2628 9.38239 13.0977 9.49358C12.9327 9.60478 12.8045 9.76269 12.7297 9.94711C12.6549 10.1315 12.6368 10.3341 12.6778 10.5288C12.7188 10.7236 12.8169 10.9017 12.9596 11.0404L13.2318 11.3125C11.1965 11.2156 9.38057 10.744 8.09635 10.0781C6.65222 9.32931 6 8.43421 6 7.66667C6 6.89912 6.65222 6.00402 8.09635 5.25521C9.54049 4.50639 11.6548 4 14 4C18.7918 4 21.1202 5.20096 22.9596 7.04036C23.0518 7.13634 23.1622 7.21296 23.2843 7.26574C23.4064 7.31852 23.5378 7.34641 23.6709 7.34776C23.8039 7.34911 23.9359 7.32391 24.0591 7.27362C24.1822 7.22333 24.2941 7.14897 24.3882 7.05489C24.4823 6.96081 24.5567 6.84891 24.6069 6.72573C24.6572 6.60256 24.6824 6.47058 24.6811 6.33754C24.6797 6.2045 24.6519 6.07307 24.5991 5.95094C24.5463 5.82882 24.4697 5.71845 24.3737 5.6263C22.2131 3.46571 19.1495 2 14 2ZM26.3737 7.98958C26.2282 7.9852 26.0835 8.01264 25.9496 8.06999C25.8158 8.12734 25.6961 8.21322 25.599 8.32161L17.8958 16.6667H6.33333C5.0567 16.6667 4 17.7234 4 19C4 25.0455 8.95455 30 15 30H17C23.0631 30 28 25.0631 28 19C28 17.7234 26.9433 16.6667 25.6667 16.6667H20.6172L27.0677 9.67839C27.2007 9.53849 27.2904 9.36309 27.326 9.17335C27.3615 8.9836 27.3414 8.78762 27.268 8.60907C27.1946 8.43051 27.0711 8.27701 26.9125 8.16709C26.7538 8.05716 26.5667 7.99551 26.3737 7.98958ZM6.33333 18.6667H18.1797C18.2725 18.6798 18.3668 18.6798 18.4596 18.6667H25.6667C25.8634 18.6667 26 18.8033 26 19C26 23.9822 21.9822 28 17 28H15C10.0455 28 6 23.9545 6 19C6 18.8033 6.13664 18.6667 6.33333 18.6667Z" fill="#FF512F"/>
</g>
</svg>
